<svg id="Layer_1" data-name="Layer 1" xmlns="http://www.w3.org/2000/svg" xmlns:xlink="http://www.w3.org/1999/xlink" viewBox="0 0 800 101.49"><defs><style>.cls-1{fill:none;}.cls-2{fill:#373a3a;}.cls-3{fill:#bba16c;}.cls-4{opacity:0.7;}.cls-5{clip-path:url(#clip-path);}</style><clipPath id="clip-path"><rect class="cls-1" x="1435.08" y="656.49" width="480" height="480" transform="translate(3350.16 1792.98) rotate(180)"/></clipPath></defs><path class="cls-2" d="M13.07,9.4c-1.2-1.47-2.26-2.26-3.77-2.26A2.59,2.59,0,0,0,6.6,10c0,4.08,13.34,3.94,13.34,14.13a10,10,0,0,1-10.19,10A10,10,0,0,1,0,27.47l4.08-3h.44c1.24,2.93,3,4.17,5.23,4.17a4.27,4.27,0,0,0,4.43-4.57C14.18,18.26.84,18.61.84,10A8.22,8.22,0,0,1,9.3,1.73c3.64,0,6.21,1.82,8.16,4.74l-4,2.93Z"/><path class="cls-2" d="M68,2.4l.22.22V7.36L68,7.58H58.39V33.19l-.22.22h-4.7l-.22-.22V7.58H43.63l-.22-.22V2.62l.22-.22Z"/><path class="cls-2" d="M99.81,2.4l.22.22V18.79c0,6.51,3.85,9.88,8.59,9.88s8.55-3.37,8.55-9.88V2.62l.22-.22h4.75l.22.22V19.67c0,9.09-6.21,14.4-13.74,14.4s-13.73-5.31-13.73-14.4v-17l.22-.22Z"/><path class="cls-2" d="M161.47,2.4c9.53,0,16.39,6.91,16.39,15.5S171,33.41,161.47,33.41H151.06l-.22-.22V2.62l.22-.22ZM156,28.23h5.49c6.25,0,10.63-4.39,10.63-10.33S167.72,7.58,161.47,7.58H156Z"/><path class="cls-2" d="M210.11,2.4l.22.22V33.19l-.22.22h-4.7l-.22-.22V2.62l.22-.22Z"/><path class="cls-2" d="M270.49,17.9A16.4,16.4,0,1,1,254.1,1.73,16.24,16.24,0,0,1,270.49,17.9Zm-26.94,0a10.55,10.55,0,1,0,21.09,0,10.55,10.55,0,1,0-21.09,0Z"/><path class="cls-2" d="M405.66,26C399.94,19,394.4,15,385.92,15c-7.57,0-13.11,5.35-13.11,12.55,0,14.76,44.29,12.91,44.29,43.73,0,16.79-13.1,30.26-33,30.26-14.76,0-27.5-7.38-34.88-22.88l10.34-7.75h1.84c6.46,12,13.66,15.68,22.7,15.68,10.7,0,16.79-7,16.79-15.31,0-17.9-44.29-15.32-44.29-43.73,0-15.69,12.55-27.5,29.35-27.5,14.2,0,24.17,7.57,31.18,18.27L407.5,26Z"/><path class="cls-2" d="M450.75,2.77l.92.92V35.61L488.21,3.69l1.84-.92H508l.92.92L462.19,43.55,512.56,97.8l-.92.92h-17.9l-1.84-.92L451.67,53V97.8l-.92.92H438.38l-.92-.92V3.69l.92-.92Z"/><path class="cls-2" d="M573.21,2.77l.92.92L612.7,97.8l-.92.92H597.2l-.92-.92L588,77H545.53l-8.3,20.85-.92.92h-14.4L521,97.8,559.37,3.69l.93-.92Zm-22,60h31.19L566.75,22.33Z"/><path class="cls-2" d="M654.28,2.77c21.22,0,36.54,12,36.54,30.26,0,12.55-7.57,22.33-20.11,26.76l29,38-.93.92h-16.6l-.93-.92L653.55,63.48H641.74V97.8l-.93.92H628.45l-.92-.92V3.69l.92-.92ZM641.74,49.08h12.54c12.74,0,20.3-5.72,20.3-16,0-10.15-7.56-16-20.3-16H641.74Z"/><path class="cls-2" d="M760.51,2.77l.92.92L800,97.8l-.92.92H784.5l-.92-.92L775.27,77H732.83l-8.3,20.85-.93.92H709.21l-.92-.92L746.67,3.69l.92-.92Zm-22,60h31.19L754.05,22.33Z"/><path class="cls-3" d="M281.7,98.72a.31.31,0,0,1-.24-.52l39.4-95.4,0,0h8.25a.31.31,0,0,1,.23.52L290.1,98.62a.35.35,0,0,1-.24.1Z"/><g class="cls-4"><g class="cls-5"><image width="1500" height="1500" transform="translate(357.07 1479.96) rotate(-74.77) scale(1.01)" xlink:href="../Full-Circle-RC.jpeg"/></g></g></svg>