<svg width="254" height="40" viewBox="0 0 254 40" fill="none" xmlns="http://www.w3.org/2000/svg">
<g clip-path="url(#clip0_1_796)">
<path d="M0 19.6187V6.7934H12.8556V9.03866H2.9553V12.4107H8.30769V14.7553H2.9553V19.6187H0Z" fill="white"/>
<path d="M16.707 19.6187V6.7934H27.576C28.5858 6.7934 29.3163 6.99224 29.7679 7.38164C30.2194 7.77103 30.4492 8.40898 30.4492 9.27892V12.2864C30.4492 13.1563 30.2194 13.7859 29.7679 14.1836C29.3163 14.5813 28.5858 14.7802 27.576 14.7802H25.9178L31.7873 19.6187H27.5432L22.4206 14.7802H19.6213V19.6187H16.707ZM26.2625 9.01386H19.6131V12.5846H26.2625C26.7715 12.5846 27.1245 12.5101 27.3133 12.361C27.5021 12.2118 27.5924 11.9467 27.5924 11.5656V10.0246C27.5924 9.65173 27.5021 9.39492 27.3133 9.24577C27.1245 9.08835 26.7797 9.01386 26.2625 9.01386Z" fill="white"/>
<path d="M36.4492 19.6187V6.7934H49.4607V8.9807H39.4045V11.8473H45.2741V14.0346H39.4045V17.216H49.5757V19.6187H36.4492Z" fill="white"/>
<path d="M55.043 19.6187V6.7934H68.0546V8.9807H57.9983V11.8473H63.8679V14.0346H57.9983V17.216H68.1695V19.6187H55.043Z" fill="white"/>
<path d="M73.625 19.6187V6.7934H81.8013C84.1327 6.7934 85.9305 7.3402 87.1865 8.44212C88.4425 9.54408 89.0663 11.1017 89.0663 13.1232C89.0663 14.3245 88.8201 15.4016 88.3357 16.3543C87.8432 17.3154 87.1537 18.0693 86.2671 18.6162C85.717 18.9641 85.0275 19.221 84.2066 19.3784C83.3856 19.5358 82.3349 19.6187 81.0461 19.6187H73.625ZM76.5885 17.2077H80.4139C82.4498 17.2077 83.8946 16.8846 84.7401 16.2467C85.5939 15.6087 86.0125 14.5482 86.0125 13.0818C86.0125 11.7727 85.6596 10.7785 84.9536 10.0992C84.2476 9.41981 83.2051 9.08835 81.8259 9.08835H76.5803V17.2077H76.5885Z" fill="white"/>
<path d="M94.496 19.6187V6.7934H107.507V8.9807H97.4513V11.8473H103.321V14.0346H97.4513V17.216H107.622V19.6187H94.496Z" fill="white"/>
<path d="M124.095 9.03866H115.771V11.7976H123.693C124.932 11.7976 125.778 12.013 126.213 12.4438C126.648 12.8747 126.87 13.67 126.87 14.8382V16.5947C126.87 17.7628 126.648 18.5582 126.213 18.989C125.778 19.4198 124.932 19.6352 123.693 19.6352H115.836C114.598 19.6352 113.752 19.4198 113.317 18.989C112.881 18.5582 112.66 17.7628 112.66 16.5947V16.2467L115.271 15.6998V17.216H124.251V14.2914H116.329C115.098 14.2914 114.261 14.076 113.826 13.6451C113.391 13.2143 113.177 12.4189 113.177 11.2507V9.83404C113.177 8.66581 113.391 7.87045 113.826 7.43963C114.261 7.00881 115.09 6.7934 116.329 6.7934H123.546C124.735 6.7934 125.565 7.00052 126.016 7.41477C126.468 7.82902 126.698 8.55811 126.698 9.6103V9.87546L124.087 10.4969V9.03866H124.095Z" fill="white"/>
<path fill-rule="evenodd" clip-rule="evenodd" d="M250.988 0H139.368C137.71 0 136.355 1.18476 136.355 2.65121V23.6123C136.355 25.0788 137.702 26.2635 139.368 26.2635H250.988C252.646 26.2635 254.001 25.0788 254.001 23.6123V2.65121C253.993 1.18476 252.646 0 250.988 0Z" fill="#ABCF39"/>
<path d="M157.671 8.54067H148.675V12.1198H156.687C157.819 12.1198 158.591 12.3269 159.01 12.7495C159.428 13.172 159.634 13.9674 159.634 15.1438V16.5854C159.634 17.7702 159.428 18.5656 159.018 18.9881C158.607 19.4107 157.827 19.6178 156.687 19.6178H149.265C148.108 19.6178 147.328 19.4023 146.909 18.9798C146.491 18.5573 146.285 17.7536 146.285 16.5854V16.2375L148.256 15.7735V17.8365H157.72V13.9757H149.733C148.576 13.9757 147.796 13.7603 147.386 13.3377C146.975 12.9152 146.77 12.1116 146.77 10.9434V9.8249C146.77 8.64838 146.975 7.85302 147.386 7.43048C147.796 7.00795 148.576 6.79254 149.733 6.79254H156.506C157.638 6.79254 158.418 6.99966 158.845 7.41391C159.272 7.82816 159.486 8.55724 159.486 9.60116V9.86632L157.671 10.3883V8.54067Z" fill="white"/>
<path d="M170.989 8.54154V19.6187H168.87V8.54154H163.059V6.7934H176.816V8.54154H170.989Z" fill="white"/>
<path d="M182.524 6.7934V17.8373H191.784V6.7934H193.877V16.5863C193.877 17.7711 193.672 18.5664 193.261 18.989C192.851 19.4115 192.072 19.6187 190.922 19.6187H183.386C182.229 19.6187 181.449 19.4032 181.03 18.9724C180.611 18.5416 180.406 17.7462 180.406 16.578V6.7934H182.524Z" fill="white"/>
<path d="M207.487 6.7934C208.66 6.7934 209.629 6.87625 210.401 7.03366C211.173 7.19108 211.83 7.44791 212.371 7.79588C213.192 8.33441 213.832 9.08008 214.3 10.0329C214.768 10.9773 215.006 12.013 215.006 13.1397C215.006 14.3411 214.776 15.4181 214.317 16.3709C213.857 17.332 213.208 18.0859 212.371 18.6327C211.854 18.9723 211.197 19.221 210.426 19.3867C209.645 19.5523 208.668 19.6269 207.495 19.6269H200.492V6.7934H207.487ZM207.183 8.54154H202.611V17.8373H207.183C209.243 17.8373 210.697 17.4728 211.55 16.7437C212.395 16.0147 212.822 14.8133 212.822 13.1232C212.822 11.4993 212.387 10.3228 211.526 9.6103C210.664 8.89786 209.21 8.54154 207.183 8.54154Z" fill="white"/>
<path d="M220.391 19.6187V6.7934H222.516V19.6187H220.391Z" fill="white"/>
<path d="M228.938 9.82613C228.938 8.658 229.143 7.86264 229.553 7.43181C229.964 7.001 230.752 6.78558 231.918 6.78558H240.71C241.859 6.78558 242.639 7.001 243.049 7.42353C243.46 7.84607 243.665 8.64972 243.665 9.81786V16.5784C243.665 17.7632 243.46 18.5586 243.049 18.9811C242.639 19.4036 241.859 19.6107 240.71 19.6107H231.918C230.752 19.6107 229.964 19.3954 229.553 18.9645C229.143 18.5337 228.938 17.7383 228.938 16.5701V9.82613ZM231.056 17.8378H241.58V8.54201H231.056V17.8378Z" fill="white"/>
<path d="M0 37.0676H0.985164C0.993363 37.4156 1.07544 37.747 1.23141 38.0701C1.38737 38.385 1.62542 38.6418 1.95384 38.8489C2.28217 39.056 2.68438 39.1554 3.16876 39.1554C3.58746 39.1554 3.97327 39.0726 4.33449 38.8987C4.6875 38.7246 4.97475 38.4678 5.18819 38.1281C5.40164 37.7884 5.50841 37.3825 5.50841 36.9185C5.50841 36.0402 5.23748 35.4437 4.6957 35.1372C4.15383 34.8306 3.48889 34.665 2.70907 34.665V33.8282C4.41657 33.8282 5.27028 33.1737 5.27028 31.8646C5.27028 31.4753 5.18819 31.119 5.02403 30.7959C4.85987 30.4811 4.63002 30.2325 4.31809 30.0502C4.00607 29.868 3.64485 29.7851 3.21804 29.7851C2.77475 29.7851 2.41353 29.8845 2.1262 30.0751C1.83887 30.2656 1.62542 30.5142 1.48585 30.8124C1.34629 31.1107 1.25601 31.4339 1.20672 31.79H0.279131C0.336615 31.0195 0.61575 30.3568 1.11644 29.7934C1.61722 29.2383 2.35605 28.9566 3.33293 28.9566C4.22772 28.9566 4.92555 29.2134 5.43453 29.7188C5.94342 30.2325 6.19796 30.8953 6.19796 31.7321C6.19796 32.2955 6.08299 32.7843 5.84494 33.2151C5.60689 33.6459 5.1718 33.9773 4.54794 34.2176V34.2425C5.02403 34.3501 5.46733 34.5986 5.89422 34.9881C6.32112 35.3775 6.52628 35.9988 6.52628 36.8523C6.52628 37.5067 6.37032 38.0701 6.06659 38.5424C5.76286 39.0146 5.35236 39.3792 4.83518 39.6194C4.31809 39.8597 3.75982 39.984 3.16056 39.984C2.44633 39.984 1.85527 39.8348 1.38737 39.5449C0.919478 39.2548 0.574664 38.882 0.361215 38.4429C0.123168 37.9955 0.0081993 37.5315 0 37.0676Z" fill="white"/>
<path d="M14.5728 39.6763H13.7437V38.5744C13.4399 39.1212 13.0623 39.4857 12.6025 39.668C12.1428 39.8502 11.7324 39.9414 11.3876 39.9414C10.9279 39.9414 10.4928 39.8586 10.0905 39.7012C9.68831 39.5355 9.3353 39.3035 9.02337 38.9969C8.71144 38.6904 8.48159 38.3175 8.30914 37.8867C8.13677 37.4559 8.05469 36.9671 8.05469 36.4452C8.05469 35.8403 8.18606 35.2686 8.4569 34.7302C8.72783 34.1916 9.11364 33.7608 9.62263 33.4377C10.1316 33.1146 10.7309 32.9488 11.4204 32.9488C12.4548 32.9488 13.2183 33.3879 13.6944 34.2662V28.7318H14.581V39.6763H14.5728ZM11.3794 39.2289C11.6913 39.2289 11.9951 39.1709 12.2824 39.0466C12.5697 38.9223 12.816 38.7484 13.0376 38.5164C13.2593 38.2844 13.4317 37.9944 13.5548 37.6464C13.6862 37.2985 13.7437 36.8926 13.7437 36.4452C13.7437 35.9729 13.6534 35.5255 13.4727 35.1029C13.2922 34.6805 13.0294 34.3325 12.6682 34.0673C12.307 33.8022 11.8966 33.6613 11.404 33.6613C10.9032 33.6613 10.4682 33.7856 10.107 34.0425C9.7458 34.2993 9.46666 34.639 9.26961 35.0698C9.08085 35.5006 8.98228 35.9563 8.98228 36.4452C8.98228 36.9837 9.08905 37.4725 9.2943 37.895C9.49946 38.3175 9.78679 38.6489 10.1562 38.8809C10.5256 39.1129 10.9361 39.2289 11.3794 39.2289Z" fill="white"/>
<path d="M24.064 39.9999L20.9609 33.1979H21.946L24.0886 38.1027L26.2066 33.1979H27.1671L24.064 39.9999Z" fill="white"/>
<path d="M28.125 31.0115C28.125 30.8292 28.1825 30.6718 28.3056 30.531C28.4287 30.3901 28.5929 30.3239 28.8063 30.3239C29.0116 30.3239 29.184 30.3901 29.2989 30.531C29.422 30.6718 29.4795 30.8292 29.4795 31.0115C29.4795 31.2186 29.4056 31.3926 29.266 31.5168C29.1265 31.6412 28.9705 31.6991 28.7981 31.6991C28.6258 31.6991 28.478 31.6328 28.3303 31.5086C28.1989 31.3843 28.125 31.2186 28.125 31.0115ZM28.3548 33.1987H29.2414V39.6694H28.3548V33.1987Z" fill="white"/>
<path d="M30.8125 38.3516L31.5349 37.9621C31.6581 38.3432 31.8633 38.6498 32.1424 38.8818C32.4215 39.1138 32.7581 39.2297 33.144 39.2297C33.5709 39.2297 33.9074 39.1054 34.1372 38.8652C34.3753 38.6249 34.4902 38.3184 34.4902 37.9455C34.4902 37.5313 34.3589 37.2331 34.088 37.059C33.8171 36.8851 33.4477 36.7277 32.9715 36.5869C32.5775 36.4626 32.2574 36.3382 32.0028 36.2057C31.7484 36.0732 31.5349 35.8909 31.3626 35.6589C31.1901 35.4186 31.108 35.1204 31.108 34.7558C31.108 34.4162 31.1901 34.1096 31.3544 33.8279C31.5185 33.5545 31.7566 33.3308 32.0685 33.1734C32.3805 33.016 32.7417 32.9332 33.1604 32.9332C34.0797 32.9332 34.7447 33.3723 35.1552 34.2588L34.4902 34.6149C34.3836 34.3333 34.1947 34.1013 33.9485 33.919C33.7021 33.7368 33.4066 33.6456 33.0865 33.6456C32.7417 33.6456 32.4708 33.7451 32.282 33.9439C32.0932 34.1428 31.9946 34.3913 31.9946 34.673C31.9946 34.905 32.0439 35.0789 32.1506 35.2198C32.2574 35.3524 32.3887 35.4601 32.5447 35.5263C32.7007 35.5926 32.9469 35.692 33.2917 35.808C33.7103 35.9406 34.0633 36.0814 34.3425 36.214C34.6216 36.3466 34.8679 36.5537 35.0895 36.8354C35.303 37.1171 35.4096 37.4733 35.4096 37.9125C35.4096 38.4509 35.2127 38.9232 34.8268 39.3292C34.441 39.7351 33.8499 39.9422 33.0619 39.9422C31.9782 39.9422 31.2312 39.412 30.8125 38.3516Z" fill="white"/>
<path d="M37.082 33.1984H37.9686V37.1255C37.9686 37.6558 38.0918 38.1446 38.3298 38.5754C38.5679 39.0062 39.0523 39.2217 39.7746 39.2217C40.4888 39.2217 40.9649 39.0062 41.203 38.5671C41.4411 38.128 41.5642 37.6475 41.5642 37.1172V33.1901H42.4508V37.0179C42.4508 38.1529 42.1717 38.9234 41.6217 39.3293C41.0635 39.7353 40.456 39.9424 39.7828 39.9424C39.0933 39.9424 38.4776 39.7353 37.9194 39.3293C37.3694 38.9234 37.0902 38.1529 37.0902 37.0179V33.1984H37.082Z" fill="white"/>
<path d="M49.9202 34.3581V33.2065H50.7493V39.6772H49.9202V38.5752C49.6739 39.0143 49.3456 39.3541 48.9351 39.586C48.5246 39.8262 48.065 39.9422 47.556 39.9422C46.9402 39.9422 46.3738 39.8014 45.8649 39.5114C45.3559 39.2214 44.9537 38.8072 44.6581 38.277C44.3626 37.7468 44.2148 37.1336 44.2148 36.4377C44.2148 35.9821 44.2887 35.5429 44.4365 35.1204C44.5843 34.6979 44.7976 34.325 45.0932 33.9936C45.3805 33.6622 45.7335 33.4053 46.1522 33.2149C46.5708 33.0243 47.047 32.9332 47.5724 32.9332C48.6395 32.9332 49.4194 33.4137 49.9202 34.3581ZM47.556 39.2297C47.9664 39.2297 48.3605 39.1221 48.7216 38.9149C49.0828 38.7077 49.3784 38.3846 49.5918 37.9704C49.8053 37.5562 49.9202 37.0425 49.9202 36.446C49.9202 36.0897 49.8709 35.7501 49.7725 35.4187C49.6739 35.0872 49.5261 34.7973 49.3292 34.5238C49.1321 34.2588 48.8859 34.0433 48.5903 33.8859C48.2948 33.7285 47.9582 33.654 47.5806 33.654C47.088 33.654 46.653 33.7865 46.2836 34.0433C45.9142 34.3002 45.635 34.6398 45.4462 35.0707C45.2574 35.5015 45.1588 35.9572 45.1588 36.446C45.1588 36.9845 45.2656 37.4733 45.4709 37.8958C45.6843 38.3184 45.9715 38.6498 46.3328 38.8818C46.7022 39.1138 47.1127 39.2297 47.556 39.2297Z" fill="white"/>
<path d="M52.9336 39.6773V28.7162H53.8195V39.6773H52.9336Z" fill="white"/>
<path d="M55.7734 31.0115C55.7734 30.8292 55.8305 30.6718 55.9535 30.531C56.0765 30.3901 56.2413 30.3239 56.4543 30.3239C56.6593 30.3239 56.8322 30.3901 56.9472 30.531C57.0702 30.6718 57.1272 30.8292 57.1272 31.0115C57.1272 31.2186 57.0541 31.3926 56.9142 31.5168C56.7743 31.6412 56.6183 31.6991 56.4463 31.6991C56.2743 31.6991 56.1264 31.6328 55.9784 31.5086C55.8474 31.3843 55.7734 31.2186 55.7734 31.0115ZM56.0034 33.1987H56.8893V39.6694H56.0034V33.1987Z" fill="white"/>
<path d="M58.55 33.1979H63.7958L59.7567 38.956H63.8938V39.6768H58.2461L62.3422 33.9187H58.542V33.1979H58.55Z" fill="white"/>
<path d="M70.6579 34.3581V33.2065H71.4876V39.6772H70.6579V38.5752C70.4119 39.0143 70.0839 39.3541 69.6731 39.586C69.2622 39.8262 68.8032 39.9422 68.2934 39.9422C67.6785 39.9422 67.1117 39.8014 66.6028 39.5114C66.0939 39.2214 65.6919 38.8072 65.3961 38.277C65.1002 37.7468 64.9531 37.1336 64.9531 36.4377C64.9531 35.9821 65.0262 35.5429 65.1741 35.1204C65.3221 34.6979 65.536 34.325 65.831 33.9936C66.1189 33.6622 66.4718 33.4053 66.8898 33.2149C67.3086 33.0243 67.7846 32.9332 68.3104 32.9332C69.3692 32.9332 70.157 33.4137 70.6579 34.3581ZM68.2934 39.2297C68.7043 39.2297 69.0982 39.1221 69.4592 38.9149C69.821 38.7077 70.116 38.3846 70.3299 37.9704C70.5429 37.5562 70.6579 37.0425 70.6579 36.446C70.6579 36.0897 70.6089 35.7501 70.5099 35.4187C70.4119 35.0872 70.264 34.7973 70.067 34.5238C69.87 34.2588 69.624 34.0433 69.3282 33.8859C69.0323 33.7285 68.6963 33.654 68.3184 33.654C67.8255 33.654 67.3906 33.7865 67.0217 34.0433C66.6518 34.3002 66.3728 34.6398 66.1839 35.0707C65.995 35.5015 65.8969 35.9572 65.8969 36.446C65.8969 36.9845 66.0039 37.4733 66.2089 37.8958C66.4138 38.3184 66.7097 38.6498 67.0707 38.8818C67.4405 39.1138 67.8425 39.2297 68.2934 39.2297Z" fill="white"/>
<path d="M73.8746 39.6763V33.9182H72.8398V33.1974H73.8746V30.6953H74.7613V33.1974H76.001V33.9182H74.7613V39.6763H73.8746Z" fill="white"/>
<path d="M77.125 31.0115C77.125 30.8292 77.182 30.6718 77.305 30.531C77.428 30.3901 77.5929 30.3239 77.8059 30.3239C78.0109 30.3239 78.1838 30.3901 78.2988 30.531C78.4217 30.6718 78.4797 30.8292 78.4797 31.0115C78.4797 31.2186 78.4057 31.3926 78.2658 31.5168C78.1259 31.6412 77.9699 31.6991 77.7979 31.6991C77.6259 31.6991 77.4779 31.6328 77.33 31.5086C77.199 31.3843 77.125 31.2186 77.125 31.0115ZM77.363 33.1987H78.2497V39.6694H77.363V33.1987Z" fill="white"/>
<path d="M83.5124 39.9422C82.8885 39.9422 82.3057 39.8014 81.7798 39.5197C81.2469 39.2381 80.82 38.8321 80.5081 38.3018C80.1961 37.7716 80.0312 37.1502 80.0312 36.4377C80.0312 35.7252 80.1872 35.1121 80.5081 34.5735C80.828 34.035 81.2469 33.6373 81.7798 33.3557C82.3137 33.074 82.8885 32.9332 83.5124 32.9332C84.1363 32.9332 84.7191 33.074 85.2449 33.3557C85.7779 33.6373 86.2048 34.0433 86.5167 34.5735C86.8367 35.1038 86.9926 35.7252 86.9926 36.4377C86.9926 37.1502 86.8367 37.7633 86.5167 38.3018C86.1968 38.8321 85.7779 39.2381 85.2449 39.5197C84.7111 39.8014 84.1363 39.9422 83.5124 39.9422ZM83.5044 39.2297C83.9963 39.2297 84.4402 39.1054 84.8261 38.8569C85.212 38.6084 85.515 38.2687 85.7289 37.8461C85.9419 37.4236 86.0488 36.9514 86.0488 36.446C86.0488 35.9406 85.9419 35.4766 85.7289 35.0458C85.515 34.6233 85.22 34.2836 84.8261 34.035C84.4402 33.7865 83.9963 33.6622 83.5044 33.6622C83.0195 33.6622 82.5766 33.7865 82.1907 34.035C81.8048 34.2836 81.5009 34.6233 81.2879 35.0458C81.074 35.4766 80.9679 35.9406 80.9679 36.446C80.9679 36.9514 81.074 37.4236 81.2879 37.8461C81.5009 38.277 81.8048 38.6084 82.1907 38.8569C82.5846 39.1054 83.0195 39.2297 83.5044 39.2297Z" fill="white"/>
<path d="M88.7656 39.6776V33.207H89.6524V34.284C90.1203 33.3893 90.8422 32.9419 91.8109 32.9419C92.5667 32.9419 93.1246 33.1822 93.4945 33.6544C93.8634 34.135 94.0444 34.7563 94.0444 35.535V39.6859H93.1576V35.6594C93.1576 35.1208 93.0676 34.6486 92.8947 34.2509C92.7227 33.8533 92.3198 33.6544 91.7129 33.6544C91.294 33.6544 90.9331 33.7787 90.6212 34.0272C90.3092 34.2758 90.0713 34.6071 89.9064 35.0131C89.7424 35.4191 89.6604 35.8582 89.6604 36.3056V39.6776H88.7656Z" fill="white"/>
<path d="M106.713 34.3581V33.2065H107.542V39.6772H106.713V38.5752C106.467 39.0143 106.139 39.3541 105.728 39.586C105.318 39.8262 104.858 39.9422 104.349 39.9422C103.733 39.9422 103.166 39.8014 102.657 39.5114C102.149 39.2214 101.747 38.8072 101.451 38.277C101.156 37.7468 101.008 37.1336 101.008 36.4377C101.008 35.9821 101.082 35.5429 101.229 35.1204C101.377 34.6979 101.591 34.325 101.886 33.9936C102.174 33.6622 102.526 33.4053 102.945 33.2149C103.363 33.0243 103.84 32.9332 104.365 32.9332C105.424 32.9332 106.213 33.4137 106.713 34.3581ZM104.341 39.2297C104.751 39.2297 105.145 39.1221 105.507 38.9149C105.868 38.7077 106.163 38.3846 106.377 37.9704C106.59 37.5562 106.705 37.0425 106.705 36.446C106.705 36.0897 106.656 35.7501 106.557 35.4187C106.459 35.0872 106.311 34.7973 106.114 34.5238C105.917 34.2588 105.671 34.0433 105.375 33.8859C105.08 33.7285 104.743 33.654 104.365 33.654C103.872 33.654 103.437 33.7865 103.068 34.0433C102.698 34.3002 102.42 34.6398 102.231 35.0707C102.042 35.5015 101.944 35.9572 101.944 36.446C101.944 36.9845 102.051 37.4733 102.256 37.8958C102.469 38.3184 102.756 38.6498 103.117 38.8818C103.478 39.1138 103.897 39.2297 104.341 39.2297Z" fill="white"/>
<path d="M109.719 39.6776V33.207H110.605V34.284C111.073 33.3893 111.795 32.9419 112.764 32.9419C113.519 32.9419 114.078 33.1822 114.447 33.6544C114.817 34.135 114.997 34.7563 114.997 35.535V39.6859H114.111V35.6594C114.111 35.1208 114.02 34.6486 113.848 34.2509C113.675 33.8533 113.273 33.6544 112.665 33.6544C112.247 33.6544 111.885 33.7787 111.573 34.0272C111.261 34.2758 111.024 34.6071 110.86 35.0131C110.696 35.4191 110.614 35.8582 110.614 36.3056V39.6776H109.719Z" fill="white"/>
<path d="M123.304 39.6763H122.475V38.5744C122.171 39.1212 121.793 39.4857 121.333 39.668C120.874 39.8502 120.463 39.9414 120.118 39.9414C119.658 39.9414 119.224 39.8586 118.822 39.7012C118.419 39.5437 118.066 39.3035 117.754 38.9969C117.45 38.6904 117.212 38.3175 117.04 37.8867C116.867 37.4559 116.785 36.9671 116.785 36.4452C116.785 35.8403 116.917 35.2686 117.188 34.7302C117.459 34.1916 117.845 33.7608 118.354 33.4377C118.863 33.1146 119.462 32.9488 120.151 32.9488C121.186 32.9488 121.949 33.3879 122.425 34.2662V28.7318H123.312V39.6763H123.304ZM120.11 39.2289C120.422 39.2289 120.726 39.1709 121.013 39.0466C121.3 38.9223 121.547 38.7484 121.769 38.5164C121.99 38.2844 122.163 37.9944 122.286 37.6464C122.409 37.2985 122.475 36.8926 122.475 36.4452C122.475 35.9729 122.384 35.5255 122.204 35.1029C122.023 34.6805 121.76 34.3325 121.399 34.0673C121.038 33.8022 120.627 33.6613 120.135 33.6613C119.634 33.6613 119.199 33.7856 118.838 34.0425C118.477 34.2993 118.198 34.639 118.001 35.0698C117.812 35.5006 117.713 35.9563 117.713 36.4452C117.713 36.9837 117.82 37.4725 118.025 37.895C118.231 38.3175 118.518 38.6489 118.887 38.8809C119.257 39.1129 119.658 39.2289 120.11 39.2289Z" fill="white"/>
<path d="M135.963 34.3581V33.2065H136.792V39.6772H135.963V38.5752C135.717 39.0143 135.389 39.3541 134.978 39.586C134.568 39.8262 134.108 39.9422 133.599 39.9422C132.983 39.9422 132.416 39.8014 131.907 39.5114C131.399 39.2214 130.997 38.8072 130.701 38.277C130.406 37.7468 130.258 37.1336 130.258 36.4377C130.258 35.9821 130.332 35.5429 130.479 35.1204C130.627 34.6979 130.841 34.325 131.136 33.9936C131.424 33.6622 131.776 33.4053 132.195 33.2149C132.613 33.0243 133.09 32.9332 133.615 32.9332C134.683 32.9332 135.471 33.4137 135.963 34.3581ZM133.599 39.2297C134.009 39.2297 134.403 39.1221 134.765 38.9149C135.126 38.7077 135.422 38.3846 135.635 37.9704C135.848 37.5562 135.963 37.0425 135.963 36.446C135.963 36.0897 135.914 35.7501 135.816 35.4187C135.717 35.0872 135.569 34.7973 135.372 34.5238C135.175 34.2588 134.929 34.0433 134.633 33.8859C134.338 33.7285 134.001 33.654 133.623 33.654C133.131 33.654 132.695 33.7865 132.326 34.0433C131.956 34.3002 131.678 34.6398 131.489 35.0707C131.301 35.5015 131.202 35.9572 131.202 36.446C131.202 36.9845 131.309 37.4733 131.514 37.8958C131.727 38.3184 132.014 38.6498 132.375 38.8818C132.736 39.1138 133.155 39.2297 133.599 39.2297Z" fill="white"/>
<path d="M138.977 39.6776V33.207H139.863V34.284C140.331 33.3893 141.053 32.9419 142.022 32.9419C142.778 32.9419 143.336 33.1822 143.705 33.6544C144.074 34.135 144.255 34.7563 144.255 35.535V39.6859H143.369V35.6594C143.369 35.1208 143.279 34.6486 143.106 34.2509C142.934 33.8533 142.531 33.6544 141.924 33.6544C141.505 33.6544 141.144 33.7787 140.832 34.0272C140.52 34.2758 140.282 34.6071 140.117 35.0131C139.953 35.4191 139.871 35.8582 139.871 36.3056V39.6776H138.977Z" fill="white"/>
<path d="M146.207 31.0115C146.207 30.8292 146.264 30.6718 146.388 30.531C146.511 30.3901 146.675 30.3239 146.888 30.3239C147.094 30.3239 147.266 30.3901 147.381 30.531C147.504 30.6718 147.562 30.8292 147.562 31.0115C147.562 31.2186 147.488 31.3926 147.348 31.5168C147.209 31.6412 147.053 31.6991 146.88 31.6991C146.708 31.6991 146.56 31.6328 146.412 31.5086C146.273 31.3843 146.207 31.2186 146.207 31.0115ZM146.437 33.1987H147.324V39.6694H146.437V33.1987Z" fill="white"/>
<path d="M150.402 34.325C150.927 33.3971 151.65 32.9332 152.578 32.9332C153.038 32.9332 153.423 33.0574 153.735 33.306C154.047 33.5545 154.253 33.8859 154.343 34.2918C154.827 33.3888 155.574 32.9332 156.592 32.9332C157.38 32.9332 157.906 33.19 158.168 33.7037C158.431 34.2173 158.562 34.789 158.562 35.4103V39.6772H157.676V35.4187C157.676 34.2421 157.249 33.654 156.403 33.654C155.894 33.654 155.451 33.8776 155.065 34.325C154.679 34.7724 154.482 35.4021 154.482 36.2223V39.6772H153.596V35.4601C153.596 34.2588 153.185 33.654 152.356 33.654C152.019 33.654 151.699 33.7699 151.395 34.0019C151.091 34.2339 150.853 34.5487 150.673 34.9381C150.492 35.3357 150.402 35.7583 150.402 36.2223V39.6772H149.516V33.2065H150.402V34.325Z" fill="white"/>
<path d="M166.03 34.3581V33.2065H166.859V39.6772H166.03V38.5752C165.783 39.0143 165.455 39.3541 165.044 39.586C164.634 39.8262 164.174 39.9422 163.665 39.9422C163.05 39.9422 162.484 39.8014 161.974 39.5114C161.465 39.2214 161.063 38.8072 160.767 38.277C160.472 37.7468 160.324 37.1336 160.324 36.4377C160.324 35.9821 160.398 35.5429 160.546 35.1204C160.693 34.6979 160.907 34.325 161.203 33.9936C161.49 33.6622 161.843 33.4053 162.262 33.2149C162.681 33.0243 163.157 32.9332 163.681 32.9332C164.749 32.9332 165.529 33.4137 166.03 34.3581ZM163.665 39.2297C164.075 39.2297 164.47 39.1221 164.831 38.9149C165.192 38.7077 165.488 38.3846 165.701 37.9704C165.915 37.5562 166.03 37.0425 166.03 36.446C166.03 36.0897 165.98 35.7501 165.882 35.4187C165.783 35.0872 165.636 34.7973 165.438 34.5238C165.241 34.2588 164.995 34.0433 164.699 33.8859C164.404 33.7285 164.067 33.654 163.69 33.654C163.198 33.654 162.763 33.7865 162.393 34.0433C162.024 34.3002 161.744 34.6398 161.556 35.0707C161.367 35.5015 161.268 35.9572 161.268 36.446C161.268 36.9845 161.375 37.4733 161.58 37.8958C161.794 38.3184 162.081 38.6498 162.442 38.8818C162.804 39.1138 163.222 39.2297 163.665 39.2297Z" fill="white"/>
<path d="M169.253 39.6763V33.9182H168.219V33.1974H169.253V30.6953H170.139V33.1974H171.379V33.9182H170.139V39.6763H169.253Z" fill="white"/>
<path d="M172.508 31.0115C172.508 30.8292 172.566 30.6718 172.689 30.531C172.812 30.3901 172.976 30.3239 173.19 30.3239C173.395 30.3239 173.567 30.3901 173.682 30.531C173.805 30.6718 173.862 30.8292 173.862 31.0115C173.862 31.2186 173.789 31.3926 173.649 31.5168C173.51 31.6412 173.354 31.6991 173.182 31.6991C173.009 31.6991 172.861 31.6328 172.714 31.5086C172.566 31.3843 172.508 31.2186 172.508 31.0115ZM172.738 33.1987H173.625V39.6694H172.738V33.1987Z" fill="white"/>
<path d="M178.886 39.9422C178.263 39.9422 177.68 39.8014 177.155 39.5197C176.621 39.2381 176.194 38.8321 175.882 38.3018C175.57 37.7716 175.406 37.1502 175.406 36.4377C175.406 35.7252 175.562 35.1121 175.882 34.5735C176.202 34.035 176.621 33.6373 177.155 33.3557C177.689 33.074 178.263 32.9332 178.886 32.9332C179.51 32.9332 180.093 33.074 180.619 33.3557C181.153 33.6373 181.58 34.0433 181.892 34.5735C182.204 35.1038 182.368 35.7252 182.368 36.4377C182.368 37.1502 182.212 37.7633 181.892 38.3018C181.571 38.8404 181.153 39.2381 180.619 39.5197C180.093 39.8014 179.51 39.9422 178.886 39.9422ZM178.886 39.2297C179.379 39.2297 179.823 39.1054 180.208 38.8569C180.594 38.6084 180.898 38.2687 181.112 37.8461C181.325 37.4236 181.432 36.9514 181.432 36.446C181.432 35.9406 181.325 35.4766 181.112 35.0458C180.898 34.6233 180.603 34.2836 180.208 34.035C179.823 33.7865 179.379 33.6622 178.886 33.6622C178.403 33.6622 177.96 33.7865 177.574 34.035C177.188 34.2836 176.884 34.6233 176.67 35.0458C176.457 35.4766 176.35 35.9406 176.35 36.446C176.35 36.9514 176.457 37.4236 176.67 37.8461C176.884 38.277 177.188 38.6084 177.574 38.8569C177.96 39.1054 178.403 39.2297 178.886 39.2297Z" fill="white"/>
<path d="M184.148 39.6776V33.207H185.034V34.284C185.503 33.3893 186.225 32.9419 187.194 32.9419C187.949 32.9419 188.507 33.1822 188.876 33.6544C189.246 34.135 189.426 34.7563 189.426 35.535V39.6859H188.54V35.6594C188.54 35.1208 188.45 34.6486 188.277 34.2509C188.105 33.8533 187.703 33.6544 187.095 33.6544C186.677 33.6544 186.315 33.7787 186.003 34.0272C185.691 34.2758 185.453 34.6071 185.289 35.0131C185.125 35.4191 185.043 35.8582 185.043 36.3056V39.6776H184.148Z" fill="white"/>
</g>
<defs>
<clipPath id="clip0_1_796">
<rect width="254" height="40" fill="white"/>
</clipPath>
</defs>
</svg>
